<?xml version="1.0" standalone="no"?>
<!DOCTYPE svg PUBLIC "-//W3C//DTD SVG 20010904//EN"
 "http://www.w3.org/TR/2001/REC-SVG-20010904/DTD/svg10.dtd">
<svg version="1.0" xmlns="http://www.w3.org/2000/svg"
 width="188.500000pt" height="160.000000pt" viewBox="0 0 754.000000 640.000000"
 preserveAspectRatio="xMidYMid meet">

<g transform="translate(0.000000,640.000000) scale(0.100000,-0.100000)"
fill="#000000" stroke="none">
<path d="M4710 5487 c-95 -29 -184 -76 -252 -134 -87 -75 -92 -77 -127 -58
-54 27 -182 38 -370 30 -282 -11 -273 -12 -312 17 -129 97 -326 141 -465 104
-103 -27 -194 -92 -194 -137 0 -14 7 -19 30 -19 17 0 30 -2 30 -5 0 -3 -18
-38 -40 -78 -84 -154 -86 -280 -4 -222 21 14 21 13 27 -63 5 -70 35 -173 57
-196 6 -6 17 -3 28 7 27 25 36 21 60 -22 27 -47 27 -47 2 -54 -28 -7 -35 -50
-20 -128 7 -38 11 -72 8 -75 -11 -10 -210 97 -245 132 -37 37 -65 41 -71 10
-7 -33 8 -83 33 -110 l24 -26 -52 0 c-61 0 -182 24 -252 51 -28 10 -56 19 -63
19 -24 0 -24 -30 0 -63 13 -17 27 -37 31 -43 4 -7 -19 -24 -61 -44 -70 -35
-191 -120 -229 -161 -33 -36 -55 -93 -41 -107 7 -7 18 -12 25 -12 17 0 16 -14
-1 -48 -16 -30 -36 -158 -36 -226 0 -23 6 -51 14 -62 14 -19 15 -18 43 9 16
15 37 27 47 27 19 0 46 -55 46 -95 0 -63 -19 -72 -200 -100 -163 -26 -203 -50
-244 -148 -46 -112 -19 -220 70 -276 89 -57 165 -76 304 -76 123 0 126 1 200
36 143 68 209 154 281 366 94 276 192 359 343 290 43 -20 56 -31 56 -48 0 -28
-98 -215 -180 -344 -73 -115 -105 -184 -125 -269 -19 -78 -19 -176 -2 -201 17
-22 31 -15 58 29 l20 31 -7 -60 c-14 -111 -9 -240 9 -269 25 -38 51 -33 72 14
22 48 36 50 65 10 49 -68 36 -132 -44 -219 -49 -53 -127 -155 -145 -189 -23
-44 11 -56 60 -21 47 33 34 8 -27 -51 -93 -92 -159 -221 -121 -236 8 -3 34 4
57 16 l43 22 -6 -34 c-19 -104 -29 -211 -25 -275 3 -72 4 -74 51 -121 l47 -47
128 4 c223 6 314 5 423 -3 131 -11 195 2 244 48 36 34 52 87 40 133 -10 41
-103 125 -161 146 -27 9 -80 21 -117 25 -85 11 -109 30 -87 69 19 33 113 99
118 83 3 -7 -1 -17 -7 -23 -14 -14 -15 -54 -1 -62 31 -19 161 73 222 157 44
60 55 70 43 41 -14 -37 -22 -102 -14 -115 7 -11 13 -10 36 2 35 19 100 145
142 278 18 54 42 115 55 136 l23 38 36 -85 c21 -47 37 -92 37 -100 0 -47 28
-60 67 -32 20 14 22 14 27 -2 5 -17 36 -218 36 -235 0 -19 31 -6 52 22 12 17
27 30 33 30 13 0 70 -97 113 -192 16 -36 50 -98 75 -136 38 -59 54 -74 100
-96 31 -14 71 -26 89 -26 51 0 121 50 238 170 58 60 115 113 126 119 12 6 84
31 160 57 162 54 180 63 215 101 65 69 83 154 50 229 -26 59 -84 121 -120 129
-29 6 -177 -17 -260 -41 -120 -34 -198 -8 -296 98 -114 123 -272 391 -325 552
-17 51 -21 81 -17 118 7 59 41 118 67 118 11 0 56 -12 102 -26 46 -15 117 -33
158 -40 89 -16 438 -19 490 -4 55 15 130 79 158 134 52 100 24 245 -61 322
-101 91 -342 153 -714 184 -117 9 -164 25 -183 61 -17 31 -10 39 60 68 37 16
66 35 68 44 2 9 -18 39 -44 67 -26 28 -45 52 -43 54 2 2 21 11 42 21 45 21 61
63 31 79 -23 13 -184 167 -184 176 0 4 44 38 97 76 126 89 205 168 228 228 10
25 21 46 25 46 3 0 17 -11 30 -25 13 -14 28 -24 33 -22 5 1 25 34 45 72 24 45
47 75 67 85 48 26 68 79 73 197 l5 104 41 -6 c51 -8 72 10 62 51 -9 35 -128
158 -174 180 -35 17 -36 17 -14 27 12 6 22 16 22 22 0 28 -34 39 -124 42 -72
2 -106 -2 -166 -20z m135 -149 c67 -26 82 -42 100 -101 38 -129 12 -185 -169
-355 -26 -24 -54 -58 -63 -75 -25 -50 -108 -151 -157 -191 -25 -20 -76 -55
-113 -78 -93 -56 -110 -72 -149 -153 -91 -187 -245 -297 -372 -265 -93 23
-115 47 -203 227 -78 160 -82 165 -140 206 -125 88 -164 123 -189 171 -16 32
-47 67 -90 101 -132 105 -173 172 -173 281 1 78 21 130 70 176 63 60 166 83
253 57 20 -6 70 -35 110 -65 40 -30 84 -57 97 -60 13 -4 81 1 150 11 199 28
356 13 601 -56 7 -2 36 25 65 61 102 126 229 163 372 108z m-1340 -851 c30
-15 42 -34 84 -123 105 -220 197 -312 340 -335 70 -11 155 2 219 33 62 31 162
132 192 193 37 80 36 79 96 33 55 -41 63 -60 28 -67 -27 -5 -54 -31 -54 -53 0
-10 18 -37 40 -59 22 -23 40 -44 40 -48 0 -3 -24 -15 -53 -26 -63 -24 -74 -56
-32 -95 46 -44 30 -60 -61 -60 -96 0 -108 -19 -80 -123 8 -29 17 -71 20 -95
l6 -42 -62 50 c-106 85 -130 65 -148 -126 -5 -59 -11 -109 -13 -110 -5 -6 -84
178 -92 214 -4 17 -12 32 -19 32 -17 0 -47 -35 -79 -90 -15 -25 -27 -39 -27
-31 0 7 -17 49 -37 92 -44 92 -49 94 -136 48 -32 -17 -62 -28 -65 -24 -4 3 3
34 15 68 20 55 20 64 7 84 -16 25 -98 53 -156 53 -24 0 -38 5 -38 13 0 6 27
52 60 100 32 49 56 95 53 103 -8 21 -68 34 -157 34 -89 0 -86 -6 -45 87 22 51
22 53 4 73 -11 12 -31 20 -52 20 -18 0 -33 5 -33 11 0 5 29 40 65 76 67 68 73
77 54 89 -8 4 -7 9 2 15 16 10 84 2 114 -14z m-444 -186 c-24 -33 -27 -64 -8
-80 8 -6 46 -14 85 -17 45 -4 72 -11 72 -19 0 -6 -21 -39 -46 -74 -36 -48 -44
-65 -35 -74 8 -8 57 -13 131 -16 66 -2 120 -6 120 -8 0 -3 -17 -24 -37 -47
-21 -23 -49 -56 -63 -73 l-25 -31 -90 29 c-250 80 -372 -8 -466 -336 -17 -60
-42 -132 -56 -158 -35 -70 -97 -132 -162 -164 -52 -26 -65 -28 -181 -28 -146
0 -201 16 -250 71 -25 29 -30 43 -30 85 0 44 4 55 33 84 42 42 110 62 237 70
110 7 146 19 157 49 4 11 8 134 8 271 0 279 3 292 69 358 49 49 164 116 217
126 24 5 111 9 192 10 l148 1 -20 -29z m1370 -604 c15 -35 23 -78 26 -132 l4
-80 -37 95 c-44 116 -64 178 -64 198 0 28 47 -26 71 -81z m-918 65 c3 -4 -5
-61 -18 -126 -13 -66 -21 -125 -18 -133 10 -24 44 -13 116 37 39 28 81 50 94
50 26 0 59 -56 93 -163 28 -86 58 -131 92 -135 31 -4 39 12 47 88 7 61 18 68
41 24 92 -178 168 -253 199 -196 5 10 13 87 17 170 4 84 8 152 10 152 1 0 50
-23 109 -52 58 -28 119 -51 136 -51 30 0 30 -1 24 -41 -31 -199 -166 -465
-309 -605 l-43 -42 -6 49 c-11 91 -106 297 -143 309 -8 3 -11 -59 -10 -214 1
-199 -1 -224 -21 -289 -46 -145 -137 -251 -373 -434 -147 -114 -234 -238 -204
-288 17 -28 91 -60 167 -72 137 -22 208 -58 206 -104 0 -12 -16 -34 -35 -49
l-34 -29 -162 12 c-89 7 -210 10 -269 7 -128 -8 -158 1 -193 52 -21 30 -26 48
-26 97 1 105 76 370 182 643 54 140 51 173 -25 338 -83 180 -91 214 -84 357 3
67 13 148 21 181 33 119 153 342 237 439 17 20 172 36 182 18z m1442 -21 c246
-43 386 -105 431 -193 21 -41 20 -121 -3 -159 -54 -93 -148 -120 -345 -101
-191 19 -449 85 -462 118 -3 9 -6 43 -6 75 0 72 -17 188 -35 240 -8 20 -10 40
-7 44 13 13 306 -4 427 -24z m-351 -1085 c139 -227 211 -311 303 -353 51 -23
64 -25 142 -20 47 4 114 15 148 26 75 24 153 36 186 27 28 -7 77 -73 77 -104
0 -26 -52 -88 -94 -109 -17 -9 -76 -28 -133 -43 -161 -44 -193 -63 -336 -199
-71 -66 -140 -124 -153 -127 -57 -14 -115 64 -170 231 -42 127 -86 195 -296
462 l-131 166 27 20 c28 20 138 162 215 275 l43 64 52 -104 c29 -57 83 -152
120 -212z"/>
<path d="M4635 5276 c-27 -13 -75 -49 -105 -80 l-55 -56 108 -108 107 -107 46
24 c51 28 109 89 131 140 30 70 -10 155 -92 192 -53 25 -80 24 -140 -5z"/>
<path d="M3255 5251 c-49 -22 -95 -102 -95 -166 0 -49 19 -81 83 -142 85 -81
131 -83 166 -7 12 24 46 71 76 104 65 71 76 101 48 138 -38 51 -220 99 -278
73z"/>
<path d="M3731 4944 c-58 -48 -33 -115 42 -114 41 1 83 52 70 87 -20 57 -64
68 -112 27z"/>
<path d="M4207 4953 c-32 -37 -22 -103 18 -121 52 -24 76 -6 78 54 1 28 -5 42
-27 60 -32 29 -48 30 -69 7z"/>
<path d="M3933 4804 c-18 -9 -39 -27 -48 -41 -20 -30 -23 -82 -5 -93 18 -11
212 -24 238 -16 22 7 38 40 33 66 -4 24 -53 71 -88 86 -42 18 -90 17 -130 -2z"/>
<path d="M3710 4576 c0 -2 13 -33 30 -69 16 -36 34 -87 40 -114 20 -87 98
-156 192 -169 95 -13 152 35 231 193 20 40 47 89 61 110 14 20 24 38 22 40 -2
2 -35 -2 -75 -9 -58 -10 -82 -10 -129 1 -68 17 -91 16 -158 0 -43 -10 -61 -10
-117 4 -64 16 -97 21 -97 13z"/>
<path d="M5010 3633 c-89 -8 -238 -36 -261 -49 -50 -26 -46 -63 14 -107 46
-36 289 -117 367 -124 84 -7 129 11 166 66 14 22 29 61 31 86 5 40 3 47 -29
79 -19 19 -52 39 -73 45 -38 10 -135 12 -215 4z"/>
</g>
</svg>
